HIERARCHY
ROOT Hips
{
	OFFSET 0.00000 0.00000 0.00000
	CHANNELS 6 Xposition Yposition Zposition Zrotation Yrotation Xrotation 
	JOINT LHipJoint
	{
		OFFSET 0 0 0
		CHANNELS 3 Zrotation Yrotation Xrotation
		JOINT LeftUpLeg
		{
			OFFSET 1.51378 -1.89840 0.47569
			CHANNELS 3 Zrotation Yrotation Xrotation
			JOINT LeftLeg
			{
				OFFSET 2.53380 -6.96157 0.00000
				CHANNELS 3 Zrotation Yrotation Xrotation
				JOINT LeftFoot
				{
					OFFSET 2.74874 -7.55212 0.00000
					CHANNELS 3 Zrotation Yrotation Xrotation
					JOINT LeftToeBase
					{
						OFFSET 0.18263 -0.50178 1.99677
						CHANNELS 3 Zrotation Yrotation Xrotation
						End Site
						{
							OFFSET 0.00000 -0.00000 1.03711
						}
					}
				}
			}
		}
	}
	JOINT RHipJoint
	{
		OFFSET 0 0 0
		CHANNELS 3 Zrotation Yrotation Xrotation
		JOINT RightUpLeg
		{
			OFFSET -1.43037 -1.89840 0.47569
			CHANNELS 3 Zrotation Yrotation Xrotation
			JOINT RightLeg
			{
				OFFSET -2.69849 -7.41406 0.00000
				CHANNELS 3 Zrotation Yrotation Xrotation
				JOINT RightFoot
				{
					OFFSET -2.69369 -7.40087 0.00000
					CHANNELS 3 Zrotation Yrotation Xrotation
					JOINT RightToeBase
					{
						OFFSET -0.28932 -0.79491 2.04975
						CHANNELS 3 Zrotation Yrotation Xrotation
						End Site
						{
							OFFSET 0.00009 0.00010 1.09536
						}
					}
				}
			}
		}
	}
	JOINT LowerBack
	{
		OFFSET 0 0 0
		CHANNELS 3 Zrotation Yrotation Xrotation
		JOINT Spine
		{
			OFFSET 0.01912 1.94784 -0.02419
			CHANNELS 3 Zrotation Yrotation Xrotation
			JOINT Spine1
			{
				OFFSET 0.07565 1.94258 0.01909
				CHANNELS 3 Zrotation Yrotation Xrotation
				JOINT Neck
				{
					OFFSET 0 0 0
					CHANNELS 3 Zrotation Yrotation Xrotation
					JOINT Neck1
					{
						OFFSET -0.07010 1.86195 0.18976
						CHANNELS 3 Zrotation Yrotation Xrotation
						JOINT Head
						{
							OFFSET 0.02284 1.86595 -0.31497
							CHANNELS 3 Zrotation Yrotation Xrotation
							End Site
							{
								OFFSET 0.01200 1.90122 -0.12838
							}
						}
					}
				}
				JOINT LeftShoulder
				{
					OFFSET 0 0 0
					CHANNELS 3 Zrotation Yrotation Xrotation
					JOINT LeftArm
					{
						OFFSET 3.39189 0.96331 -0.10437
						CHANNELS 3 Zrotation Yrotation Xrotation
						JOINT LeftForeArm
						{
							OFFSET 5.14845 -0.00000 0.00000
							CHANNELS 3 Zrotation Yrotation Xrotation
							JOINT LeftHand
							{
								OFFSET 3.43674 -0.00000 -0.00000
								CHANNELS 3 Zrotation Yrotation Xrotation
								JOINT LeftFingerBase
								{
									OFFSET 0 0 0
									CHANNELS 3 Zrotation Yrotation Xrotation
									JOINT LeftHandIndex1
									{
										OFFSET 0.58871 -0.00000 0.00000
										CHANNELS 3 Zrotation Yrotation Xrotation
										End Site
										{
											OFFSET 0.47463 -0.00000 0.00000
										}
									}
								}
								JOINT LThumb
								{
									OFFSET 0 0 0
									CHANNELS 3 Zrotation Yrotation Xrotation
									End Site
									{
										OFFSET 0.48188 -0.00000 0.48188
									}
								}
							}
						}
					}
				}
				JOINT RightShoulder
				{
					OFFSET 0 0 0
					CHANNELS 3 Zrotation Yrotation Xrotation
					JOINT RightArm
					{
						OFFSET -3.34934 1.18831 -0.19928
						CHANNELS 3 Zrotation Yrotation Xrotation
						JOINT RightForeArm
						{
							OFFSET -5.42185 -0.00000 0.00000
							CHANNELS 3 Zrotation Yrotation Xrotation
							JOINT RightHand
							{
								OFFSET -3.51317 -0.00000 -0.00000
								CHANNELS 3 Zrotation Yrotation Xrotation
								JOINT RightFingerBase
								{
									OFFSET 0 0 0
									CHANNELS 3 Zrotation Yrotation Xrotation
									JOINT RightHandIndex1
									{
										OFFSET -0.66319 -0.00000 0.00000
										CHANNELS 3 Zrotation Yrotation Xrotation
										End Site
										{
											OFFSET -0.53468 -0.00000 0.00000
										}
									}
								}
								JOINT RThumb
								{
									OFFSET 0 0 0
									CHANNELS 3 Zrotation Yrotation Xrotation
									End Site
									{
										OFFSET -0.54284 -0.00000 0.54284
									}
								}
							}
						}
					}
				}
			}
		}
	}
}
MOTION
Frames: 14
Frame Time: .0083333
15.053 17.7256 -4.6886 0 0 0 0 0 0 -21 0 0 0 0 0 0 0 0 0 0 0 0 0 0 21 0 0 0 0 0 0 0 0 0 0 0 0 0 0 0 0 0 0 0 0 0 0 -16 0 0 21 0 0 11 0 0 0 -8 0 0 0 0 0 0 0 0 0 0 0 0 0 0 0 0 0 0 0 0 8 0 0 0 0 0 0 0 0 0 0 0 0 0 0 0 0 0
15.0530 17.7256 -4.6886 -106.7360 -86.7700 115.1020 0.0000 0.0000 0.0000 -17.6270 -6.0284 -24.3157 4.8933 13.2626 40.3596 1.4481 -1.3508 -22.3594 0.3036 -3.5427 -9.7936 0.0000 0.0000 0.0000 26.5509 13.7780 -19.8248 -4.8728 -13.2391 40.2703 -2.5035 2.7456 -29.2525 -0.2107 -2.9551 8.1537 -0.1991 0.8625 0.2695 3.4139 1.1171 -0.0506 3.6128 0.5450 -0.2752 -3.2783 0.1257 -13.4263 -2.1612 0.5485 35.9766 -0.3458 -0.9721 14.6836 0.0000 0.0000 0.0000 -90.2281 5.6619 19.7356 17.4487 -27.4455 -4.2921 -0.0000 0.0000 -2.0300 18.6763 24.1650 7.8782 -7.1250 0.0000 -0.0000 -11.4148 54.9590 -2.8190 0.0000 0.0000 0.0000 87.3530 1.8026 21.0311 -14.8145 23.8871 -3.1505 0.0000 0.0000 0.2466 -28.4750 12.5854 -6.7402 7.1250 -0.0000 -0.0000 -0.8272 -15.7299 -0.5720
15.0451 17.7194 -4.7056 -103.8130 -86.8158 112.1760 0.0000 0.0000 0.0000 -17.4937 -6.0858 -24.9686 5.1476 13.5481 41.4565 1.3944 -1.4587 -21.9015 0.3597 -3.8528 -10.6629 0.0000 0.0000 0.0000 26.6365 13.6470 -19.7645 -4.8645 -13.2295 40.2338 -2.5144 2.7430 -29.3190 -0.2039 -2.9078 8.0220 -0.1230 0.8532 0.3322 3.3895 1.1061 -0.0458 3.5438 0.5396 -0.3028 -3.2162 0.0816 -13.3898 -2.1718 0.4666 35.9614 -0.3736 -0.9987 14.6682 0.0000 0.0000 0.0000 -90.1152 5.6195 20.0169 17.4423 -27.4372 -4.2892 -0.0000 0.0000 -2.0571 18.8752 24.0332 7.9270 -7.1250 0.0000 -0.0000 -11.1516 54.8654 -2.7273 0.0000 0.0000 0.0000 87.4601 1.8399 20.7271 -14.8452 23.9300 -3.1629 0.0000 0.0000 0.2582 -28.2490 12.6477 -6.7097 7.1250 -0.0000 -0.0000 -0.6665 -15.6888 -0.4615
15.0376 17.7181 -4.7192 -102.1240 -86.7658 110.4480 0.0000 0.0000 0.0000 -17.2724 -6.1403 -25.6216 5.4371 13.8598 42.6785 1.3598 -1.7385 -21.5487 0.2675 -3.3272 -9.1912 0.0000 0.0000 0.0000 26.7862 13.5558 -19.6834 -4.8651 -13.2302 40.2364 -2.5221 2.6756 -29.3807 -0.1938 -2.8350 7.8197 -0.0076 0.7658 0.4002 3.4412 0.9876 0.0114 3.5325 0.4786 -0.2737 -3.3269 0.0869 -13.3584 -2.1531 0.5025 35.8480 -0.3380 -0.9918 14.6078 0.0000 0.0000 0.0000 -90.1620 5.5543 19.9676 17.4901 -27.4993 -4.3112 -0.0000 0.0000 -2.3406 19.0945 24.2483 8.0915 -7.1250 0.0000 -0.0000 -11.0230 55.1254 -2.7653 0.0000 0.0000 0.0000 87.3954 1.8995 20.9003 -14.9254 24.0420 -3.1955 0.0000 0.0000 0.2076 -28.3902 12.6878 -6.7699 7.1250 -0.0000 -0.0000 -0.7599 -15.6258 -0.5272
15.0326 17.7103 -4.7359 -99.3495 -86.7392 107.7200 0.0000 0.0000 0.0000 -17.0488 -6.1888 -26.4548 5.7356 14.1671 43.9110 1.3131 -1.9486 -21.1129 0.2657 -3.3162 -9.1603 0.0000 0.0000 0.0000 26.9224 13.4580 -19.7623 -4.8633 -13.2282 40.2287 -2.5170 2.6088 -29.3651 -0.1816 -2.7445 7.5682 0.0740 0.6912 0.4720 3.4785 0.8892 -0.0041 3.5249 0.4292 -0.3233 -3.3771 0.0891 -13.3244 -2.1324 0.5136 35.7743 -0.3171 -0.9881 14.5654 0.0000 0.0000 0.0000 -90.1862 5.5595 20.0515 17.6051 -27.6486 -4.3644 -0.0000 0.0000 -2.5357 19.0434 24.4182 8.1209 -7.1250 0.0000 -0.0000 -11.1528 55.2863 -2.8423 0.0000 0.0000 0.0000 87.3415 1.9646 20.9260 -14.9223 24.0378 -3.1942 0.0000 0.0000 0.3960 -28.5090 12.6094 -6.7622 7.1250 -0.0000 -0.0000 -0.8484 -15.6986 -0.5873
15.0255 17.7035 -4.7533 -95.3949 -86.7411 103.8050 0.0000 0.0000 0.0000 -16.8429 -6.1498 -27.3654 6.0553 14.4817 45.2032 1.2509 -2.2255 -20.5264 0.3380 -3.7359 -10.3347 0.0000 0.0000 0.0000 27.0160 13.3522 -19.8044 -4.8575 -13.2215 40.2032 -2.5048 2.6339 -29.2852 -0.1739 -2.6866 7.4075 0.1213 0.6640 0.5019 3.4982 0.8530 0.0028 3.5185 0.4107 -0.3302 -3.3219 0.0789 -13.3570 -2.1017 0.4780 35.7591 -0.3193 -0.9893 14.5653 0.0000 0.0000 0.0000 -90.1790 5.5342 20.3064 17.6607 -27.7205 -4.3902 -0.0000 0.0000 -2.4796 19.0399 24.2328 8.0622 -7.1250 0.0000 -0.0000 -11.0721 55.0989 -2.7707 0.0000 0.0000 0.0000 87.2961 1.9584 20.8594 -14.9562 24.0850 -3.2080 0.0000 0.0000 0.4024 -28.3196 12.7186 -6.7661 7.1250 -0.0000 -0.0000 -0.7088 -15.6004 -0.4921
15.0142 17.7052 -4.7690 -91.5878 -86.6701 100.0770 0.0000 0.0000 0.0000 -16.5405 -6.2539 -28.3071 6.3895 14.7955 46.5257 1.1831 -2.4955 -19.8848 0.3248 -3.6631 -10.1308 0.0000 0.0000 0.0000 27.1757 13.1569 -19.8836 -4.8460 -13.2082 40.1529 -2.4942 2.4854 -29.2553 -0.1263 -2.2908 6.3101 0.2083 0.6484 0.4057 3.5757 0.8275 0.0314 3.5512 0.3960 -0.2453 -3.4985 -0.0002 -13.3811 -2.0088 0.3860 35.7101 -0.2632 -1.0359 14.5486 0.0000 0.0000 0.0000 -90.2475 5.3962 20.4826 17.6545 -27.7125 -4.3874 -0.0000 0.0000 -2.3796 19.3971 24.4938 8.3053 -7.1250 0.0000 -0.0000 -10.8220 55.4333 -2.7954 0.0000 0.0000 0.0000 87.1049 2.0476 21.0835 -14.9272 24.0446 -3.1962 0.0000 0.0000 0.0194 -28.6307 12.7202 -6.8544 7.1250 -0.0000 -0.0000 -0.9221 -15.5584 -0.6411
15.0061 17.6999 -4.7857 -89.2920 -86.4509 97.7677 0.0000 0.0000 0.0000 -16.1000 -6.3635 -29.1338 6.7277 15.0982 47.8368 1.1123 -2.2439 -19.3136 0.3890 -4.0051 -11.0911 0.0000 0.0000 0.0000 27.5086 12.8608 -19.8815 -4.8263 -13.1855 40.0667 -2.4921 2.5371 -29.2305 -0.1031 -2.0703 5.7000 0.3787 0.6193 0.5087 3.6944 0.7870 0.0690 3.5774 0.3737 -0.2615 -3.4939 -0.0113 -13.4329 -2.0883 0.4041 35.6751 -0.2932 -1.0362 14.5450 0.0000 -0.0000 0.0000 -90.2836 5.3024 20.6349 17.6933 -27.7626 -4.4054 -0.0000 0.0000 -2.4907 19.4789 24.6073 8.3784 -7.1250 0.0000 -0.0000 -10.7890 55.5643 -2.8211 0.0000 -0.0000 0.0000 86.9773 2.1043 21.2958 -14.9714 24.1063 -3.2143 0.0000 -0.0000 -0.3425 -29.0249 12.6072 -6.9055 7.1250 -0.0000 -0.0000 -1.2028 -15.6342 -0.8343
14.9951 17.6932 -4.8025 -88.8771 -86.1590 97.2609 0.0000 0.0000 0.0000 -15.6049 -6.3484 -29.8651 7.0610 15.3831 49.1048 1.0528 -2.0682 -18.8117 0.4920 -4.4974 -12.4804 0.0000 0.0000 0.0000 27.9292 12.6935 -19.7098 -4.8024 -13.1578 39.9619 -2.5026 2.7688 -29.2416 -0.1368 -2.3838 6.5675 0.5941 0.6065 0.6524 3.8456 0.7683 0.1167 3.6114 0.3616 -0.2912 -3.5008 0.0190 -13.4442 -2.1343 0.4684 35.6696 -0.3007 -1.0159 14.5452 0.0000 0.0000 0.0000 -90.3724 5.2399 20.6886 17.7140 -27.7894 -4.4151 -0.0000 0.0000 -2.5581 19.1677 24.3110 8.1440 -7.1250 0.0000 -0.0000 -10.9759 55.2031 -2.7741 0.0000 0.0000 0.0000 86.9233 2.1336 21.1918 -15.0066 24.1553 -3.2286 0.0000 -0.0000 -0.2352 -28.7580 12.4144 -6.7287 7.1250 -0.0000 -0.0000 -1.0368 -15.8859 -0.7135
14.9819 17.6943 -4.8162 -87.5583 -86.0026 95.9121 0.0000 0.0000 0.0000 -15.2470 -6.3799 -30.6560 7.3865 15.6489 50.3215 1.0076 -2.1716 -18.3679 0.5186 -4.6154 -12.8149 0.0000 0.0000 0.0000 28.1787 12.5590 -19.5842 -4.7737 -13.1244 39.8358 -2.5065 2.8180 -29.2542 -0.1365 -2.3817 6.5618 0.7690 0.6032 0.7019 3.8994 0.7636 0.1340 3.5681 0.3579 -0.2993 -3.4337 -0.0071 -13.3369 -2.1389 0.4041 35.6139 -0.3229 -1.0327 14.4945 0.0000 0.0000 0.0000 -90.3074 5.2616 21.1008 17.8034 -27.9047 -4.4569 -0.0000 0.0000 -2.8399 19.1566 24.0996 8.0734 -7.1250 0.0000 -0.0000 -10.8926 54.9877 -2.6954 0.0000 0.0000 0.0000 86.9257 2.1098 20.9530 -15.0483 24.2134 -3.2457 0.0000 0.0000 0.0031 -28.4589 12.3019 -6.5877 7.1250 -0.0000 -0.0000 -0.8408 -16.0501 -0.5756
14.9700 17.6910 -4.8299 -85.1572 -85.9923 93.5409 0.0000 0.0000 0.0000 -15.0403 -6.5366 -31.5133 7.7078 15.9001 51.5033 0.9661 -2.0773 -17.9938 0.5960 -4.9422 -13.7438 0.0000 0.0000 0.0000 28.2644 12.3648 -19.5706 -4.7388 -13.0835 39.6817 -2.5040 2.6141 -29.2848 -0.1048 -2.0872 5.7468 0.8045 0.5998 0.6778 3.8782 0.7563 0.1999 3.5267 0.3535 -0.2170 -3.3855 -0.0944 -13.3854 -2.0859 0.2505 35.5695 -0.3328 -1.0804 14.4850 0.0000 0.0000 0.0000 -90.2054 5.0915 21.3070 17.8478 -27.9619 -4.4777 -0.0000 0.0000 -2.8903 18.9196 24.3580 8.0464 -7.1250 0.0000 -0.0000 -11.2527 55.2011 -2.8448 0.0000 0.0000 0.0000 86.8457 2.1860 20.9995 -15.0944 24.2774 -3.2646 0.0000 -0.0000 -0.0341 -28.4727 12.2111 -6.5439 7.1250 -0.0000 -0.0000 -0.8581 -16.1502 -0.5856
14.9588 17.6807 -4.8377 -82.9999 -85.8732 91.3227 0.0000 0.0000 0.0000 -14.7428 -6.7271 -32.2514 8.0170 16.1318 52.6240 0.9146 -1.8096 -17.5531 0.7135 -5.3982 -15.0478 0.0000 0.0000 0.0000 28.4843 12.0223 -19.4437 -4.6996 -13.0373 39.5083 -2.5087 2.4072 -29.3615 -0.0775 -1.7959 4.9419 1.0048 0.5948 0.8001 3.8597 0.7519 0.2572 3.3936 0.3505 -0.2237 -3.3121 -0.1471 -13.4522 -2.0617 0.1510 35.5592 -0.3513 -1.1073 14.4953 0.0000 0.0000 0.0000 -90.0904 5.0291 21.5371 17.9641 -28.1111 -4.5323 -0.0000 0.0000 -3.0765 18.8026 24.3906 8.0034 -7.1250 0.0000 -0.0000 -11.3880 55.2106 -2.8823 0.0000 0.0000 0.0000 86.8890 2.2384 20.6662 -15.0968 24.2809 -3.2657 0.0000 0.0000 0.2414 -28.4271 12.1622 -6.5061 7.1250 -0.0000 -0.0000 -0.8308 -16.2108 -0.5659
14.9458 17.6667 -4.8362 -82.4763 -85.7596 90.7185 0.0000 0.0000 0.0000 -14.4669 -6.9613 -32.9303 8.3050 16.3391 53.6540 0.8775 -1.5536 -17.2449 0.8310 -5.8156 -16.2503 0.0000 0.0000 0.0000 28.6857 11.4776 -19.3990 -4.6708 -13.0032 39.3803 -2.4904 1.9238 -29.3682 -0.0123 -0.7167 1.9697 1.2875 0.6313 0.9386 3.8800 0.8037 0.2977 3.2535 0.3751 -0.2588 -3.4302 -0.2063 -13.4111 -1.9705 0.0632 35.5439 -0.3063 -1.1469 14.4795 -0.0000 0.0000 0.0000 -90.0944 4.9543 21.8040 18.0355 -28.2026 -4.5660 -0.0000 0.0000 -3.2724 18.6037 24.2501 7.8714 -7.1250 0.0000 -0.0000 -11.5279 55.0303 -2.8676 -0.0000 0.0000 0.0000 86.9722 2.3621 19.7660 -14.9543 24.0824 -3.2073 0.0000 0.0000 0.9996 -28.6394 12.4609 -6.7205 7.1250 -0.0000 -0.0000 -0.9512 -15.8487 -0.6553
14.9310 17.6709 -4.8349 -80.9375 -85.7169 89.2123 0.0000 0.0000 0.0000 -14.3066 -7.2388 -33.6482 8.5407 16.5029 54.4878 0.8781 -1.3824 -17.2956 0.8730 -5.9572 -16.6604 0.0000 0.0000 0.0000 28.6928 11.1626 -19.4937 -4.6436 -12.9708 39.2593 -2.4968 2.3348 -29.3066 -0.0191 -0.8929 2.4541 1.4632 0.6228 1.0801 3.9480 0.7999 0.2263 3.2231 0.3725 -0.4096 -3.6327 -0.2204 -13.3417 -1.9441 0.0792 35.6143 -0.2586 -1.1677 14.4978 -0.0000 -0.0000 0.0000 -90.2564 5.0926 22.0431 18.1945 -28.4054 -4.6414 -0.0000 0.0000 -3.2653 18.5301 24.2735 7.8454 -7.1250 0.0000 -0.0000 -11.6142 55.0392 -2.8920 -0.0000 -0.0000 0.0000 86.7851 2.3255 19.6307 -14.8464 23.9317 -3.1634 0.0000 0.0000 1.1424 -27.5110 13.3468 -6.8555 7.1250 -0.0000 -0.0000 -0.1010 -15.0038 -0.0714
